<svg xmlns="http://www.w3.org/2000/svg" width="25" height="25"><g fill="none" fill-rule="evenodd"><circle class="emo-background" cx="12.375" cy="12.375" r="12.375"/><path fill="#5A5A5A" fill-rule="nonzero" d="M20.444 20.444a11.334 11.334 0 0 1-8.068 3.342 11.334 11.334 0 0 1-8.068-3.342 11.334 11.334 0 0 1-3.341-8.068c0-3.048 1.186-5.912 3.341-8.068A11.334 11.334 0 0 1 12.376.967c3.048 0 5.913 1.186 8.068 3.341a11.334 11.334 0 0 1 3.341 8.068c0 3.048-1.186 5.913-3.341 8.068m.683-16.819A12.294 12.294 0 0 0 12.377 0a12.294 12.294 0 0 0-8.752 3.625A12.294 12.294 0 0 0 0 12.376c0 3.306 1.287 6.414 3.625 8.751a12.294 12.294 0 0 0 8.751 3.625c3.306 0 6.414-1.286 8.751-3.625a12.294 12.294 0 0 0 3.625-8.75c0-3.306-1.286-6.414-3.625-8.752m-2.829 9.57H6.454a.484.484 0 0 0-.484.484 6.413 6.413 0 0 0 6.406 6.405 6.413 6.413 0 0 0 6.406-6.405.484.484 0 0 0-.484-.484m-9.866-1.764c.855 0 1.55-.696 1.55-1.55 0-.855-.695-1.55-1.55-1.55-.854 0-1.55.695-1.55 1.55 0 .854.696 1.55 1.55 1.55m7.926 0c.855 0 1.55-.696 1.55-1.55 0-.855-.695-1.55-1.55-1.55-.855 0-1.55.695-1.55 1.55 0 .854.695 1.55 1.55 1.55"/></g></svg>
