<svg xmlns="http://www.w3.org/2000/svg" width="25" height="25"><g fill="none" fill-rule="evenodd"><circle cx="12.375" cy="12.375" r="12.375" class="emo-background"/><path fill="#011627" fill-rule="nonzero" d="M12.5 0C5.603 0 0 5.603 0 12.5S5.603 25 12.5 25 25 19.397 25 12.5 19.397 0 12.5 0zm.05 1C18.936 1 24.1 6.164 24.1 12.55c0 6.386-5.164 11.55-11.55 11.55A11.541 11.541 0 0 1 1 12.55C1 6.164 6.164 1 12.55 1zM7.778 7.222a1.667 1.667 0 1 0 0 3.334 1.667 1.667 0 0 0 0-3.334zm9.444 0a1.667 1.667 0 1 0 .001 3.334 1.667 1.667 0 0 0 0-3.334zM12.5 14.167c-2.724 0-5.13 1.419-6.571 3.576a.555.555 0 1 0 .92.616c1.251-1.87 3.314-3.081 5.651-3.081 2.337 0 4.4 1.21 5.651 3.081a.558.558 0 0 0 .794.191.555.555 0 0 0 .126-.807c-1.442-2.157-3.847-3.576-6.57-3.576H12.5z"/></g></svg>
