<svg xmlns="http://www.w3.org/2000/svg" width="25" height="25"><g fill="none" fill-rule="evenodd"><circle cx="12.375" cy="12.375" r="12.375" class="emo-background"/><path fill="#011627" fill-rule="nonzero" d="M20.648 20.648a11.447 11.447 0 0 1-8.148 3.375 11.447 11.447 0 0 1-8.149-3.375A11.447 11.447 0 0 1 .976 12.5c0-3.078 1.199-5.972 3.375-8.149A11.447 11.447 0 0 1 12.5.977c3.078 0 5.972 1.198 8.148 3.374a11.447 11.447 0 0 1 3.375 8.149c0 3.078-1.198 5.972-3.375 8.148m.69-16.987A12.417 12.417 0 0 0 12.5 0C9.161 0 6.022 1.3 3.661 3.661A12.417 12.417 0 0 0 0 12.5c0 3.339 1.3 6.477 3.661 8.839A12.417 12.417 0 0 0 12.5 25c3.339 0 6.477-1.3 8.839-3.661A12.417 12.417 0 0 0 25 12.5c0-3.339-1.3-6.478-3.661-8.839m-4.06 11.972H7.76a.488.488 0 0 0 0 .977h9.52a.488.488 0 1 0 0-.977m-6.59-5.964a.488.488 0 0 0-.977 0c0 .665-.541 1.206-1.205 1.206A1.207 1.207 0 0 1 7.3 9.67a.488.488 0 0 0-.977 0c0 1.204.979 2.183 2.183 2.183a2.184 2.184 0 0 0 2.182-2.183m7.499-.488a.488.488 0 0 0-.489.488c0 .665-.54 1.206-1.206 1.206a1.207 1.207 0 0 1-1.205-1.206.488.488 0 0 0-.976 0c0 1.204.978 2.183 2.181 2.183a2.184 2.184 0 0 0 2.183-2.183.488.488 0 0 0-.488-.488"/></g></svg>
