<?xml version="1.0" encoding="UTF-8"?>
<svg width="64px" height="64px" viewBox="0 0 64 64" version="1.1" xmlns="http://www.w3.org/2000/svg" xmlns:xlink="http://www.w3.org/1999/xlink">
    <!-- Generator: Sketch 42 (36781) - http://www.bohemiancoding.com/sketch -->
    <title>Shape</title>
    <desc>Created with Sketch.</desc>
    <defs></defs>
    <g id="Icons" stroke="none" stroke-width="1" fill="none" fill-rule="evenodd">
        <g id="Artboard" transform="translate(-4718.000000, -8954.000000)" fill-rule="nonzero" fill="#10CFBD">
            <g id="e080" transform="translate(4718.000000, 8954.000000)">
                <path d="M32,0 C14.3269996,0 0,14.3269996 0,32 C0,49.6739997 14.3269996,64 32,64 C49.6739998,64 64,49.6739997 64,32 C64,14.3269996 49.6739998,0 32,0 Z M32.4266667,60.5866667 C16.8994447,60.5866667 4.26666667,47.9047968 4.26666667,32.3950223 C4.26666667,16.8852478 16.8994447,4.26666667 32.4266667,4.26666667 C47.9538886,4.26666667 60.5866667,16.8852478 60.5866667,32.3950223 C60.5866667,47.9047968 47.9538886,60.5866667 32.4266667,60.5866667 Z M45.2176204,20.2222845 L26.4020597,39.433508 L17.9287938,30.8360965 C17.1461066,30.0419417 15.8773715,30.0419417 15.0936821,30.8360965 C14.3109949,31.6302512 14.3109949,32.9175749 15.0936821,33.7117298 L25.0140678,43.7784799 C25.7967551,44.5716178 27.0654901,44.5716178 27.8491795,43.7784799 C27.939374,43.686964 28.0165403,43.5873133 28.0866915,43.4835953 L48.0537362,23.0989331 C48.8354213,22.3047784 48.8354213,21.0174547 48.0537362,20.2222829 C47.2700453,19.4281277 46.0013113,19.4281277 45.2176204,20.2222845 Z" id="Shape"></path>
            </g>
        </g>
    </g>
</svg>